# xmcd
#
# Track frame offsets:
#	150
#	14118
#	36625
#	51088
#	64745
#	76151
#	90634
#	105858
#	121194
#	135166
#	148378
#	161149
#	176623
#	191365
#	205754
#
# Disc length: 2904 seconds
#
# Revision: 1
# Processed by: cddbd v1.5.1PL0 Copyright (c) Steve Scherf et al.
# Submitted via: audiograbber 1.83.01
#
DISCID=cb0b560f
DTITLE=Cole Porter - Cole Porter Greatest Hits
DYEAR=1950
DGENRE=Ballad
TTITLE0=Night And Day
TTITLE1=I Love Paris
TTITLE2=Begin The Beguine
TTITLE3=You Do Something To Me
TTITLE4=Friendship
TTITLE5=Don't Fence Me In
TTITLE6=In The Still Of The Night
TTITLE7=What Is This Thing Called Love
TTITLE8=It's De-Lovely
TTITLE9=You'd Be So Nice To Come Home
TTITLE10=Just One Of Those Things
TTITLE11=Easy To Love
TTITLE12=Love For Sale
TTITLE13=I've Got You Under My Skin
TTITLE14=I Love You
EXTD=
EXTT0=
EXTT1=
EXTT2=
EXTT3=
EXTT4=
EXTT5=
EXTT6=
EXTT7=
EXTT8=
EXTT9=
EXTT10=
EXTT11=
EXTT12=
EXTT13=
EXTT14=
PLAYORDER=
